<svg xmlns="http://www.w3.org/2000/svg" viewBox="0 0 308.84 285.42"><defs><style>.cls-1{fill:#1b2340;}.cls-2{fill:#021d49;}.cls-3{fill:#ea0029;}.cls-4,.cls-6{fill:none;}.cls-4{stroke:#021d49;stroke-width:1.54px;}.cls-4,.cls-5,.cls-6{stroke-miterlimit:10;}.cls-5{fill:#fff;stroke:#fff;stroke-width:2px;}.cls-6{stroke:#ea0029;stroke-width:4px;}</style></defs><title>Logo_DMC_PMS_witte_achtergrond</title><g id="Laag_1" data-name="Laag 1"><path class="cls-1" d="M288.44,436.14a13.47,13.47,0,0,1-9.77-4c-3.66-3.66-3.61-7.79-3.61-14.95s-.05-11.29,3.61-14.94a13.48,13.48,0,0,1,9.77-4c6.85,0,12,4,13.27,11.45H296c-.89-3.76-3.4-6.38-7.53-6.38a7.44,7.44,0,0,0-5.49,2.25c-1.83,2-2.24,4.13-2.24,11.6s.41,9.62,2.24,11.61a7.44,7.44,0,0,0,5.49,2.24c4.13,0,6.69-2.61,7.58-6.37h5.69C300.46,432.12,295.18,436.14,288.44,436.14Z" transform="translate(-265.6 -150.72)"></path><path class="cls-1" d="M331.08,432.17a14.08,14.08,0,0,1-19.6,0c-3.65-3.66-3.6-7.79-3.6-14.95s-.05-11.29,3.6-14.94a14.06,14.06,0,0,1,19.6,0c3.66,3.65,3.56,7.78,3.56,14.94S334.74,428.51,331.08,432.17Zm-4.28-26.5a7.82,7.82,0,0,0-11.08,0c-1.83,2-2.2,4.08-2.2,11.55s.37,9.57,2.2,11.55a7.82,7.82,0,0,0,11.08,0c1.83-2,2.19-4.07,2.19-11.55S328.63,407.66,326.8,405.67Z" transform="translate(-265.6 -150.72)"></path><path class="cls-1" d="M370.17,435.83V411l-8.57,18.14h-4.18L348.64,411v24.88H343V398.62h5.65l10.87,23.15,10.66-23.15h5.64v37.21Z" transform="translate(-265.6 -150.72)"></path><path class="cls-1" d="M400.53,435.83h-15V398.62H400c6.9,0,11.24,3.92,11.24,10.19a8.43,8.43,0,0,1-5,7.89,8.84,8.84,0,0,1,5.59,8.62C411.76,432.17,407.11,435.83,400.53,435.83Zm-1-32.14h-8.36v10.66h8.36c3.61,0,6.07-1.88,6.07-5.33S403.09,403.69,399.48,403.69Zm.53,15.73h-8.89v11.34H400c3.92,0,6.11-2.41,6.11-5.7S403.93,419.42,400,419.42Z" transform="translate(-265.6 -150.72)"></path><path class="cls-1" d="M420.12,435.83V398.62h5.65v37.21Z" transform="translate(-265.6 -150.72)"></path><path class="cls-1" d="M458.32,435.83l-17.19-26.19v26.19h-5.64V398.62h5.17l17.19,26.13V398.62h5.65v37.21Z" transform="translate(-265.6 -150.72)"></path><path class="cls-1" d="M494.59,435.83,492,428.35H477.34l-2.56,7.48h-6l13.64-37.21H487l13.64,37.21ZM484.82,407,479,423.55h11.45Z" transform="translate(-265.6 -150.72)"></path><path class="cls-1" d="M515.33,403.69v32.14h-5.64V403.69H499.44v-5.07h26.13v5.07Z" transform="translate(-265.6 -150.72)"></path><path class="cls-1" d="M532,435.83V398.62h5.64v37.21Z" transform="translate(-265.6 -150.72)"></path><path class="cls-1" d="M547.36,435.83V398.62h23.78v5.07H553v10.87h15.46v5H553v11.19h18.13v5.07Z" transform="translate(-265.6 -150.72)"></path><path class="cls-2" d="M420.11,333.05a7.89,7.89,0,0,1-5.74,2.09h-7.79v-22.2h7.79a7.89,7.89,0,0,1,5.74,2.09c2.4,2.4,2.25,5.64,2.25,8.86S422.51,330.65,420.11,333.05Zm-2.31-15.59A4.79,4.79,0,0,0,414,316h-4.09v16.16H414a4.79,4.79,0,0,0,3.77-1.5c1.16-1.28,1.19-3.68,1.19-6.73S419,318.74,417.8,317.46Z" transform="translate(-265.6 -150.72)"></path><path class="cls-2" d="M427.35,335.14v-22.2h14.19v3H430.71v6.49H440v3h-9.24v6.68h10.83v3Z" transform="translate(-265.6 -150.72)"></path><path class="cls-3" d="M301.64,379V357.31l-7.11,14.11h-4.91l-7.16-14.11V379h-7.27V341.79h7.16l9.73,20.12,9.66-20.12h7.16V379Z" transform="translate(-265.6 -150.72)"></path><path class="cls-3" d="M338.74,379l-2.2-6.59H323.32L321.08,379H313.5L327,341.79h5.7L346.32,379Zm-8.68-26.24-4.7,13.54h9.25Z" transform="translate(-265.6 -150.72)"></path><path class="cls-3" d="M372.55,379,363,362.07l-4.8,5.74V379h-7.27V341.79h7.27V358l13.11-16.2h8.84l-12.34,14.79L381,379Z" transform="translate(-265.6 -150.72)"></path><path class="cls-3" d="M385.66,379V341.79h24.51v6.48H392.93V357h14.68v6.48H392.93v9h17.24V379Z" transform="translate(-265.6 -150.72)"></path><path class="cls-3" d="M417.28,379V341.79h7.26v30.73h16.88V379Z" transform="translate(-265.6 -150.72)"></path><path class="cls-3" d="M468.49,379l-2.19-6.59H453.07L450.83,379h-7.58l13.53-37.21h5.7L476.07,379Zm-8.68-26.24-4.7,13.54h9.25Z" transform="translate(-265.6 -150.72)"></path><path class="cls-3" d="M501.83,379l-2.2-6.59H486.41L484.16,379h-7.57l13.53-37.21h5.7L509.41,379Zm-8.68-26.24-4.7,13.54h9.25Z" transform="translate(-265.6 -150.72)"></path><path class="cls-3" d="M533.76,379l-7.27-14.84h-5.22V379H514V341.79h14.58c7.58,0,12.07,5.17,12.07,11.39a10,10,0,0,1-6.79,9.77L542.17,379Zm-5.65-30.73h-6.84v9.82h6.84c3.19,0,5.28-2,5.28-4.91S531.3,348.27,528.11,348.27Z" transform="translate(-265.6 -150.72)"></path><path class="cls-3" d="M558.42,379.31c-5.64,0-9.93-1.2-13.59-4.91l4.71-4.7c2.35,2.35,5.53,3.13,9,3.13,4.29,0,6.59-1.62,6.59-4.6A4.15,4.15,0,0,0,564,365.1a5.53,5.53,0,0,0-3.29-1.31l-4.5-.63c-3.19-.47-5.54-1.46-7.21-3.08a9.82,9.82,0,0,1-2.66-7.32c0-6.63,4.91-11.28,13-11.28,5.12,0,8.83,1.25,12,4.33l-4.6,4.55c-2.35-2.25-5.18-2.56-7.63-2.56-3.87,0-5.75,2.14-5.75,4.7a3.58,3.58,0,0,0,1.1,2.67,6.38,6.38,0,0,0,3.44,1.46l4.39.63c3.4.47,5.54,1.41,7.11,2.87,2,1.88,2.88,4.6,2.88,7.89C572.22,375.24,566.21,379.31,558.42,379.31Z" transform="translate(-265.6 -150.72)"></path><line class="cls-4" x1="5.55" y1="238.12" x2="308.84" y2="238.12"></line><line class="cls-4" x1="7.08" y1="182.79" x2="134.12" y2="182.79"></line><line class="cls-4" x1="181.8" y1="182.79" x2="308.84" y2="182.79"></line><rect class="cls-2" x="16.73" y="16.73" width="269.12" height="126.99" rx="22.68" ry="22.68"></rect><path class="cls-5" d="M374.8,258.82a19,19,0,0,1-10.12,10.1,18.8,18.8,0,0,1-7.4,1.48H332.83V193.19h24.45a18.63,18.63,0,0,1,7.4,1.48,18.81,18.81,0,0,1,10.12,10.12,18.63,18.63,0,0,1,1.48,7.4v39.25A18.46,18.46,0,0,1,374.8,258.82Zm-5.46-46.63a12.1,12.1,0,0,0-1-4.82,12.9,12.9,0,0,0-2.67-3.93,12.64,12.64,0,0,0-3.93-2.66,11.9,11.9,0,0,0-4.82-1H339.78v64H357a12.06,12.06,0,0,0,4.82-1,12.93,12.93,0,0,0,3.93-2.64,12.46,12.46,0,0,0,2.67-3.91,12.06,12.06,0,0,0,1-4.82Z" transform="translate(-265.6 -150.72)"></path><path class="cls-5" d="M440.35,270.4V217.47l-.48,3.28L421.94,270.4h-3.66l-18.09-49.65-.43-3.28V270.4h-6.95V193.19h3.61l23.42,63.32.22,2.85.21-2.85,23.37-63.32h3.66V270.4Z" transform="translate(-265.6 -150.72)"></path><path class="cls-5" d="M505.75,259.9a19.15,19.15,0,0,1-4.07,6,19,19,0,0,1-6,4.06,18.46,18.46,0,0,1-7.38,1.48h-5.49a18.59,18.59,0,0,1-7.4-1.48,18.89,18.89,0,0,1-10.12-10.09,18.46,18.46,0,0,1-1.48-7.38V211.06a18.38,18.38,0,0,1,1.48-7.37,19,19,0,0,1,10.12-10.1,18.59,18.59,0,0,1,7.4-1.48h5.49a18.46,18.46,0,0,1,7.38,1.48,19.09,19.09,0,0,1,10.1,10.1,18.55,18.55,0,0,1,1.48,7.37v3.13l-7,1.07v-4.2a11.93,11.93,0,0,0-1-4.82,12.39,12.39,0,0,0-2.64-3.9,12.56,12.56,0,0,0-3.9-2.64,12.1,12.1,0,0,0-4.82-1H483.1a12,12,0,0,0-4.81,1,12.93,12.93,0,0,0-3.93,2.64,12.15,12.15,0,0,0-2.67,3.9,11.93,11.93,0,0,0-1,4.82v41.46a11.93,11.93,0,0,0,1,4.82,12.5,12.5,0,0,0,2.67,3.93,12.67,12.67,0,0,0,3.93,2.67,12,12,0,0,0,4.81,1H488a12.1,12.1,0,0,0,4.82-1,12.31,12.31,0,0,0,3.9-2.67,12.75,12.75,0,0,0,2.64-3.93,11.93,11.93,0,0,0,1-4.82v-4.2l7,1.13v3.07A18.64,18.64,0,0,1,505.75,259.9Z" transform="translate(-265.6 -150.72)"></path><path class="cls-6" d="M399.56,309.18H303.12a35.56,35.56,0,0,1-35.52-35.53V188.24a35.56,35.56,0,0,1,35.52-35.52H530.66a35.57,35.57,0,0,1,35.53,35.52v85.41a35.57,35.57,0,0,1-35.53,35.53H447.21" transform="translate(-265.6 -150.72)"></path></g></svg>