<svg xmlns="http://www.w3.org/2000/svg" id="Layer_1" data-name="Layer 1" viewBox="0 0 150.31 23.03"><defs><style>.cls-1{fill:#201d1e;}</style></defs><path class="cls-1" d="M36.94,0H0V22.75H36.91c6.85,0,11.27-4.46,11.27-11.36S43.77,0,36.94,0ZM47.33,11.39c0,6.39-4.09,10.51-10.42,10.51H.85V.85H36.94C43.25.85,47.33,5,47.33,11.39Z"></path><path class="cls-1" d="M36.79,4H4.26V18.8h32.5c3.39,0,7-1.95,7-7.41S40.16,4,36.79,4Zm0,14H5.11V4.8H36.79c3,0,6.12,1.73,6.12,6.59S39.73,18,36.76,18Z"></path><path class="cls-1" d="M59.93,18.86c2.92,0,4.6-1.76,4.6-4.82V0h-.85V14c0,2.56-1.33,4-3.75,4s-3.71-1.45-3.71-4V0h-.85V14C55.37,17.06,57.07,18.86,59.93,18.86Z"></path><path class="cls-1" d="M67.94,14.35c0,4.76-3.14,7.83-8,7.83s-8-3.07-8-7.83V0h-.85V14.35c0,5.27,3.46,8.68,8.82,8.68s8.86-3.41,8.86-8.68V0h-.85Z"></path><polygon class="cls-1" points="85 0.85 88.79 0.85 94.03 17.08 98.26 0.85 119.41 0.85 119.41 0 97.61 0 93.94 14.04 89.41 0 84.37 0 79.87 13.99 76.18 0.13 76.14 0 75.26 0 79.8 17.01 85 0.85"></polygon><polygon class="cls-1" points="119.41 4.05 111.89 4.05 111.89 22.75 112.74 22.75 112.74 4.9 119.41 4.9 119.41 4.05"></polygon><polygon class="cls-1" points="95.91 21.9 92.16 21.9 86.84 5.33 81.53 21.9 77.72 21.9 71.63 0 70.75 0 77.03 22.62 77.07 22.75 82.15 22.75 86.84 8.12 91.5 22.63 91.54 22.75 96.56 22.75 101.47 4.87 107.59 4.9 107.59 22.75 108.44 22.75 108.44 4.05 100.82 4.01 95.91 21.9"></polygon><path class="cls-1" d="M124.18,19c2,0,3.33-1.42,3.33-3.61V0h-.85V15.34c0,1.7-1,2.76-2.48,2.76s-2.57-1-2.6-2.86v-.17h-.85v.17C120.76,17.57,122.05,19,124.18,19Z"></path><path class="cls-1" d="M130.93,15.34a6.62,6.62,0,0,1-6.72,6.81c-4.09,0-6.74-2.64-6.74-6.71v-.18h-.85v.18A7.17,7.17,0,0,0,124.21,23a7.45,7.45,0,0,0,7.57-7.66V0h-.85Z"></path><polygon class="cls-1" points="136 0 136 22.75 150.31 22.75 150.31 21.9 136.85 21.9 136.85 0.85 150.31 0.85 150.31 0 136 0"></polygon><polygon class="cls-1" points="141.11 13.78 149.42 13.78 149.42 12.93 140.26 12.93 140.26 18.73 150.31 18.73 150.31 17.89 141.11 17.89 141.11 13.78"></polygon><polygon class="cls-1" points="140.26 9.76 149.42 9.76 149.42 8.91 141.11 8.91 141.11 4.87 150.31 4.87 150.31 4.01 140.26 4.01 140.26 9.76"></polygon></svg>